<?xml version="1.0" encoding="UTF-8"?>
<svg id="Layer_2" data-name="Layer 2" xmlns="http://www.w3.org/2000/svg" xmlns:xlink="http://www.w3.org/1999/xlink" viewBox="0 0 1422 571">
  <defs>
    <style>
      .cls-1 {
        fill: #28282b;
      }

      .cls-1, .cls-2 {
        stroke-width: 0px;
      }

      .cls-2 {
        fill: none;
      }

      .cls-3 {
        opacity: .15;
      }

      .cls-4 {
        clip-path: url(#clippath);
      }
    </style>
    <clipPath id="clippath">
      <rect class="cls-2" width="1422" height="571"/>
    </clipPath>
  </defs>
  <g id="Layer_1-2" data-name="Layer 1">
    <g class="cls-4">
      <g class="cls-3">
        <path class="cls-1" d="M952.45,1419.5c-11.79-4.38-24.6-5.15-36.85-6.59-49.48-5.85-98.29-19.33-148.64-15.69-29.67,2.14-59.14,6.88-88.8,9.31-13.16,1.08-20.43-7.97-25.34-19.61-5.03-11.93-8.95-28.07-25.93-25.21-21.47,3.61-27.51,21.54-29.69,40.86-.32,2.79-.84,5.57-1.26,8.35-2.4-1.64-5.12-2.96-7.16-4.97-31.9-31.39-29.1-74.78,14.79-93.43,66.48-28.24,103.19-81.31,139.79-137.46,14.78-22.69,35.24-41.73,64.77-27.63,30.49,14.56,24.8,44.71,19.18,69.45-15.05,66.22,3.61,132.04,46.02,150.06,38.25,16.26,79.88,18.59,119.61,28.75,18.97,4.85,37.01,11.8,52.45,23.82h74.71c-21.88-11.87-43.63-24.02-66.01-34.84-36.35-17.57-76.28-22.58-115.22-31.35-59.17-13.32-86.12-73.28-74.31-139.27,15.5-86.66,77.2-133.49,139.95-181.59,54.97-42.14,103.98-88.66,103-165.47-.62-48.42-21.77-88.58-55.22-122.25-50.38-50.71-43.96-106.48-18.31-165.86,25.53-59.1,44.39-119.38,21.05-184.75-9.27-25.98-30.35-38.77-50.47-53.58-35.05-25.79-36.03-50.6,2.34-70.94,47.06-24.96,68.56-62.18,78.11-113.05,11.91-63.48,65.05-83.64,127.1-53.78,43.62,20.99,78.93,55.86,124.57,73.21,28.09,10.68,55.91,10.55,83.46,0v-41.4c-82.05,39.24-139.39-11.51-197.52-58.85-35.28-28.74-73.63-41.54-119.82-31.37-15.57,3.43-43.63,8.37-43.79-17.23-.16-25.42,24.04-23.63,42.95-26.62h-100.07c2.63,43.34,22.17,82.82,29.17,125.19,9.72,58.82-20.37,98.35-63.06,131.71-14.54,11.36-29.36,22.62-45.2,31.99-16.87,9.97-38.97,21.16-50.75-1.97-12.15-23.86,11.96-34.35,28.66-43.37,32.24-17.41,72.5-23.58,83.07-68.2,10.64-44.94-5.82-86.2-14.39-128.67-3.11-15.44-5.13-31.09-7.52-46.67h-38.32c5.34,16.24,10.79,32.44,15.91,48.75,13.55,43.16,31.78,87.35-4.08,127.99-24,27.2-59.21,42.97-80.49,73.21-29.16,41.43-59.5,80.86-108.79,100.53-11.42,4.56-27.68,9.15-26.76,24.24.99,16.35,17.32,23.12,30.31,30.24,39.97,21.91,85.38,15.25,127.87,23.93,21.76,4.44,44.38,10.16,52.34,34.26,6.07,18.38-5.49,33.44-19.31,42.81-27.25,18.48-55.58,35.63-84.7,51-70.38,37.15-132.82,82.54-167.87,156.99-9.39,19.95-16.91,41.92-4.29,63.36,6.92,11.76,19.76,16.2,33.37,14.39,25.02-3.33,45.2-17.61,65.79-30.74,42.75-27.25,84.4-59.98,136.57-63.1,55.71-3.33,97.06,35.53,141.5,62,37.65,22.43,60.54,57.25,53.4,103.06-13.15,84.39-65.67,142.29-134.16,187.34-21.67,14.25-46.7,27.39-72.82,13.56-24.09-12.75-20.69-38.21-16.02-59.54,9.98-45.61-6.86-72.75-46.25-97.61-50.57-31.91-51.55-58.73-10.38-94.78,29.85-26.15,64.56-53.41,105.83-46.16,63.27,11.12,96.18,60.43,97.02,128.94.11,8.82-1.84,20.61,9.7,24.51,3.65,1.24,10.76-2.21,13.79-5.69,12.07-13.88,16.83-30.96,18.05-49.05,3.41-50.44-31.8-73.12-68.87-92.78-29.03-15.4-55.35-41.8-91.58-35.82-47.87,7.91-80.62,46.43-123.18,65.86-37.09,16.93-42.42,40.31-16.63,72.14,11.63,14.35,26.02,27.18,41.18,37.8,58.88,41.25,65.8,70.11,27.06,122.88-20.07,27.34-46.1,51.85-59.76,82.02-31.32,69.18-74.63,120.16-148.99,147.1-79.38,28.76-102.09,101.79-55.22,155.36h399.34ZM722.26,745.46c-10.4,10.25-28.03,24.75-39.48,9.79-16.45-21.5,5.37-38.99,18.66-53.32,56.58-60.98,128.48-102.3,195.38-150.1,26.44-18.9,51.04-41.67,58.85-74.95,7.16-30.52-17.9-40.41-38.85-51.87-6.24-3.42-16.86-4.45-15.76-12.88.4-3.06,13.53-6.21,20.9-6.32,40.12-.62,65.78,23.59,65.78,72.27-3.56,46.86-40.53,84.58-83.95,114.34-65.82,45.12-124.98,97.26-181.54,153.04ZM833.96,688.51c-2.01.63-4.18.77-6.28,1.14.75-2.23,1.05-4.76,2.31-6.66,26.83-40.36,71.08-59.49,108.15-87.01,55.41-41.15,88.5-119.98,64.88-166.54-17.69-34.87-47.56-49.32-91.18-49.25-22-.26-47.61,8.85-73.63,16.27-11.04,3.15-25.85,9.77-32.04-3.11-6.03-12.56,7.88-20.06,17.71-25.3,76.75-40.89,194.35-30.04,218.51,69.72,14.37,59.31-12.51,108.94-48.51,153.01-41.56,50.88-98.46,78.51-159.92,97.71Z"/>
        <path class="cls-1" d="M881.98.5h-28.83c18.04,21.88,32.06,45.61,35.71,74.89,4.54,36.46-3.36,70.09-29.85,94.92-47.04,44.07-76.78,103.74-129.43,142.21-39.41,28.8-81.82,21.32-121.72,2.8-47.42-22.01-92.35-17.95-137.88,3.05-2.84,1.31-6.14,1.62-9.22,2.39.83-3.19,1.22-6.58,2.55-9.54,15.85-35.26,78.03-49.08,125.54-28.69,47.59,20.42,95.23,47.03,145.37,5.66,34.2-28.22,54.15-67.69,80.72-101.95,20.2-26.04,48.23-47.99,49.71-84.11,1.97-48-23.77-79.19-61.99-101.63h-191.87c18.13,6.26,36.18,12.75,54.6,18,34.88,9.93,69.55-5.55,104.38-2.43,34.03,3.06,59.2,21.18,75.54,50.64,10.04,18.09,9.72,36.87-2.46,54.73-4.78,7.01-11.02,11.34-19.14,10.12-9.72-1.46-13.7-9.57-15.82-18.21-14.4-58.53-31.21-70.86-89.28-54.76-37.92,10.51-66.03-9.28-96.59-21.72-66.41-27.04-132.03,15.31-132.33,86.63-.07,17.21-1.19,34.45-2.8,51.59-1.12,11.94-3.45,25.66-19.84,23.35-14.98-2.11-20.5-15.96-20.04-28.47,2.54-69.15,15.81-149.5,96.96-169.46h-60.28c-41.89,52.99-59.82,113.8-53.25,181.08,2.46,25.15,16.3,48.67,45.99,44.31,32.15-4.72,27.9-35.44,31.31-58.53,6.16-41.81.2-89.06,47.49-112.5,31.23-15.48,61.04-4.85,86.39,14.58,21.86,16.76,42.89,23,71.22,20.02,62.61-6.58,85.05,24.54,69.88,90.42-13.86,60.15-62.69,111.9-105.77,110.97-32.16-.69-55.77-23.32-83.84-34.55-54.73-21.89-98.82,1.81-140.32,34.77-63.04,50.07-130.56,90.39-213.15,97.59-7.67.67-16.78-.47-18.53-8.96-1.96-9.49,7.53-12.14,14.53-14.61,38.51-13.62,78.86-22.14,114.83-42.72,53.87-30.82,59.89-77.82,50.81-134.04-10.71-66.31,4.32-129.38,37.63-187.84h-31.69c-25.53,63.72-21.76,131.27-24.95,197.98-1.85,38.84-10.24,76.14-38.47,105.12-58.38,59.92-146.14,57.4-210.99-4.24-8.82-8.38-20.42-25.31-33.36-14.48-13.09,10.96-.02,24.9,7.94,35.91,5.44,7.52,10.82,15.19,17.11,21.96,33.4,35.98,63.31,78.14,121.47,72.51,35.3-3.42,62.86-25.28,93.31-40.06,65.91-32,132.41,9.28,132.41,82.75,0,90.86-93.07,154.93-186.9,135.3-64.92-13.58-122.43-46.89-186.87-60.39-36.28-7.6-79.95,17.2-88.99,53.46-7.57,30.37,13.57,56.08,52.45,66.58,55.15,14.89,106.56,35.8,142.88,84.15,38.19,50.83,51.83,52.57,105.8,15,44.84-31.21,90.92-45.41,144.98-25.68,49.44,18.04,69.98,4.79,70.45-47.75.61-67.43,31.68-110.75,93.23-134.63,52.95-20.55,80.67-70.53,67.38-124.62-7.09-28.85-30.23-40.15-57.23-33.99-24.1,5.49-15.26,27.06-11.88,42.86,9.18,42.89,5.97,81.2-33.41,109.03-24.91,17.61-48.48,36.6-60.3,66.31-9,22.63-18.6,45.17-35.68,63.04-37.7,39.44-88.65,32.81-135.97,37.57-100.85,10.16-184.21-37.58-267.82-83.37-16.29-8.92-35.75-21.69-22.71-43.2,12.37-20.4,33.92-13.56,50.86-3.39,56.47,33.9,111.32,69.59,178.13,82.64,57.08,11.15,114.88-2.93,141.38-39.09,50.98-69.57,64.2-148.29,61.45-232.1-1.69-51.41,27.86-74.62,76.63-58.27,78.11,26.19,149.33,24.38,208.37-40.94,30.56-33.82,54.45-73.76,91.82-101.31,32.66-24.07,47.87-54.81,41.51-96.05-4.83-31.35-17.83-59.66-29.28-88.6Z"/>
        <path class="cls-1" d="M981.46,1305.65c67.93,23.46,124.15,68.78,188.56,98.6,11.47,5.31,23.1,10.28,34.73,15.24h47.99c-2.47-.37-4.91-.83-7.24-1.28-57.95-11.4-103.85-42.92-144.33-85.18-64.91-67.77-50.82-216.47,25.84-270.04,42.59-29.76,83.99-61.33,124.62-93.73,11.97-9.55,23.11-28.75,9.05-40.55-14.58-12.23-20.68,9.31-29.36,18.2-15.81,16.19-30.21,34.58-48.45,47.42-70.42,49.57-133.87,103.65-151.29,194.41-3.08,16.03-10.06,32.68-30.45,27.25-15.79-4.21-16.7-20.3-13.85-34.16,15.6-75.85,66.02-126.9,123.38-173.19,32.72-26.41,72.49-46.67,88.12-89.34,12.9-35.19-5.44-69.44-7.07-104.35-1.35-28.88,4.2-60.8-14.63-85.22-14.04-18.2-38.57-28.46-51.95-46.96-35.91-49.67-23.64-105.68-10.15-158.72,14.85-58.4,28.1-115.36,14.11-176.2-13.07-56.82-12.28-113.78,13.84-167.89,4.55-9.41,11.63-18.16,23.48-15.66,12.24,2.59,13.84,13.46,13.78,24.15-.21,43.9-13.38,86.68-8.87,131.27,4.24,41.87,32.19,72.68,64.06,65.1,55.38-13.16,116.51,15.69,136.24,68.65,19.58,52.56,8.65,109.99,20.55,164.15,5.61,25.53,9.38,51.79,27.96,71.61v-83.35c-10.3-28.01-12.78-57.77-13.38-87.02-1.89-92.1-43.58-151.53-132.56-179.49-56.95-17.9-76.31-56.19-72.76-133.34,1.26-27.44,10.29-59.8-26.69-67.44-34.18-7.06-43.31,24.67-53.42,48.98-14.28,34.34-35.96,62.72-61.2,89.78-25.6,27.44,1.39,47.4,15.58,67.42,47.04,66.39,40.02,138.36,9.19,204.57-35.61,76.49-20.25,133.3,35.04,192.11,55.99,59.55,62.99,152.87,20.65,209.86-33.06,44.5-84.62,69.95-123.18,109.21-45.91,46.76-99.96,89.54-108.37,160.25-6.01,50.53,32.46,71.07,72.42,84.87Z"/>
        <path class="cls-1" d="M875.57,473.13c-.72-3.66-7.51-7.82-12.14-8.73-38.81-7.63-79.2-6.28-116.62-22.27-13.32-5.69-20.04,4.06-21.11,16.01-5.18,58.03-30.9,99.49-88.5,119.38-33.64,11.62-67.08,28.53-74.99,67.4-5.53,27.19-3.42,56.02-3.94,84.12-.65,35.9-19.36,52.99-53.95,46.31-30.6-5.91-60.57-17.9-91.28-19.87-66.03-4.24-106.25,40.52-143.12,86.37-17.47,21.72-14.46,46.17,7.67,65.13,14.61,12.53,30.25,7.96,44.14-1.95,16.58-11.84,30.59-28.93,48.73-36.63,94.27-40.01,185.8-20.85,269.9,26.91,74.89,42.54,91.22,100.43,57.11,157.55-31.57,52.87-85.84,68.1-139,85.95-71.07,23.85-133.39,57.15-152.62,139.15-10.37,44.23-32.65,81.45-82.01,89.15-44.63,6.96-72.89-22.64-100.84-51.82-23.63-24.66-45.55-52.46-78.99-64.72-58.35-21.4-101.67,7.8-142.87,42.77v50.93c12.21-17.84,23.46-36.47,41.85-49.16,54.51-37.62,101.07-28.7,142.21,24.7,27.9,36.21,57.86,70.84,93.66,99.67h133.92c-19.84-83.49,17.52-147.94,74.43-204.16,36.34-35.9,86.73-49.1,130.76-72.62,58.39-31.19,107.63-71.24,120.67-141.01,9.56-51.16-26.72-76.07-61.16-101.88-24.93-18.68-56.77-31.69-62.26-68.02-.87-5.78,2.27-12.16,3.55-18.26,2.88,1.38,6.5,2.08,8.48,4.27,4.52,5.01,8.02,10.94,12.32,16.16,27.18,32.96,61.97,57.32,94.8,83.91,44.89,36.35,43.51,80.3,7.66,143.45-46.92,82.65-125,123.78-202.9,166.43-57.27,31.36-110.58,119.81-79.09,191.73h44.44c-40.05-83.4,4.5-171.2,86.8-199.16,36.22-12.3,76.09-18.46,100.89-52.99,28.88-40.21,44.46-88.7,79.17-125.43,16.43-17.39,33.99-35.97,31.15-62.67-3.76-35.28-34.66-49.55-57.61-69.49-42.45-36.9-94.09-67.45-111.9-124.08-24-76.32,16.63-134.61,64.68-187.89,45.41-50.36,109.52-72,165.73-105.78,6.86-4.12,13.9-10.08,12.17-18.87ZM644.86,639.05c-23.22,42.03-31.45,87.84-38.46,134.71-8.31,55.56-49.56,81.47-104.3,58.98-72.54-29.8-132.88-21.57-186.8,35.47-6.1,6.45-18.8,15.88-24.08,6.53-9.12-16.15,5.03-29.85,15.13-41.51,51.46-59.46,112.06-69.26,184.1-38.38,27.67,11.86,66.26,28.38,83.17-17.24,8.64-23.31,7.76-50.15,11.18-75.39,1.46-30.2-.44-61.87,23.91-85.18,10.31-9.88,24.21-19.45,37.5-10.86,13.04,8.43,4.38,22.51-1.35,32.87Z"/>
        <path class="cls-1" d="M422.68,411.81c-17.86-26.02-55.31-29.22-87.91-6.09-26.59,18.87-48.8,44.98-84.64,47.31-56.22,3.65-92.14-31.04-127.72-66.9-48.36-48.75-62.49-51.66-121.27-21.6v47.48c55.75-27.67,97.18,7.82,141.61,33.75,78.88,46.03,129.73,40.55,206.72-18.9,10.75-8.3,25.37-19.91,36.42-7.32,13.38,15.25,1.95,32.59-9.89,44.24-53.14,52.28-117.72,53.62-185.79,40.62-45.68-8.73-82.18-39.49-126.72-50.39-22.86-5.59-42.88,2.19-62.35,12.4v43.61c21.74-17.71,46-32.14,74.52-23.39,45.56,13.98,88.9,35.47,134.73,48.21,63.53,17.66,128.38,31.21,189.08-11.94,34.1-24.24,45.87-78.08,23.21-111.09Z"/>
        <path class="cls-1" d="M1420.14,744.23c-9.08-9.89-18.68-19.45-25.78-30.6-37.41-58.71-38.52-126.46-45.16-192.53-6.04-60.13-56.34-101.9-114.57-93.25-49.51,7.35-86.07,56.52-88.18,115.48-1.35,37.63-9.4,75.86,14.45,109.72,12.85,18.24,40.04,18.74,51.31,39.08,16.35,29.51,6.18,61.83,8.26,92.83,2.73,40.67,13.87,76.95,49.43,100.86,52.42,35.25,87.47,30.56,150.25-20.48v-121.1ZM1360.17,887.6c-38.31,10.35-67.83-6.63-90.48-36.37-20.15-26.47-23.57-58.1-23.86-90.22-.14-36.34,10.6-76.12-23.41-103.55-19.35-15.61-47.21-18.97-55.88-49.15-17.63-61.31,15.25-135.42,69.28-150.32,42.31-11.67,81.47,22.53,95.18,81.46,14.29,61.43,7.65,127.58,40.5,184.72,15.83,27.53,37.58,52.45,38.65,86.18,1.16,36.83-11.34,66.81-49.98,77.25Z"/>
        <path class="cls-1" d="M290.78.5h-59.77c-11.46,21.57-24.19,42.61-33.39,65.1-15.65,38.26-3.78,68.89,30.59,91.67,13.13,8.7,29.25,16.31,29.57,35.29.08,4.72-5.34,12.54-9.72,13.81-20.24,5.88-36.71-4.25-50.17-17.46-54.39-53.35-63.26-119.41-26.07-185.82.46-.83.85-1.7,1.21-2.59h-26.93c-27.01,57.94-13.93,151.71,29.46,198.27,21.41,22.98,46.73,41.48,80.01,27.5,28.52-11.99,30.07-39.91,28.89-65.85-2.44-53.59-6.05-107.07,6.32-159.92Z"/>
        <path class="cls-1" d="M1420.14,222.85c-45.27,23.44-82.79,3.42-121.11-23-15.88-10.95-37.09-43.69-56.59-11.26-15.17,25.23-6.99,57.37,14.04,81.52,27.48,31.56,68.87,39.86,103.2,60.03,23.28,13.68,42.56,31.5,60.47,51.07v-158.35Z"/>
        <path class="cls-1" d="M365.67.5h-27.87c-1.49,4.31-3.02,8.6-4.13,13-15.33,60.74-2.83,123.38-12.48,184.57-6.59,41.8-38.46,81.43-76.5,88.09-34.49,6.04-63.83-8.37-82.57-36.87C112.44,173.75,88.6,91.31,101.48.5h-29.4c-1,5.12-2.25,10.25-1.88,15.26,6.69,90.64,33.99,176.93,81.41,252.14,38.4,60.91,108.13,79.23,164.19,11.03,36.8-44.77,41.35-97.86,41.8-152.7.34-42.01-5.38-84.62,8.08-125.73Z"/>
        <path class="cls-1" d="M77.91,166.24C64.67,110.96,32.51,60.06,37.53.5h-21.17c-5.65,41.22,12.8,77.49,25.39,114.85,21.21,62.93,7.45,117.58-40.62,158.64v42.86c51.99-11.22,91.3-89.95,76.77-150.61Z"/>
        <path class="cls-1" d="M1420.14,29.28c-17.67,12.01-33.35,27.24-55.02,32.75-46.14,11.74-79.4-11.72-111.15-39.93-8.33-7.41-16.97-14.46-25.54-21.6h-73.71c33.85,5.26,61.93,23.89,88.96,44.77,53.44,41.28,107.21,80.15,176.46,38.35V29.28Z"/>
        <path class="cls-1" d="M1292.96.5c13.7,14.25,28.35,27.54,49.29,29.08,22.96,1.69,36.72-13.21,49.45-29.08h-98.74Z"/>
        <path class="cls-1" d="M15.07,132.86c-2.31-17.63-4.24-35.94-13.94-51.62v139.11c.17-.17.33-.35.44-.55,16.15-27.13,17.42-57,13.49-86.94Z"/>
        <path class="cls-1" d="M583.3,458.7c1.11,28.97-7.37,51.9-38.49,60.07-19.24,5.05-22.86-8.74-22.56-22.01.87-38.83,2.94-77.65,5.54-116.41.64-9.52,3.53-21.34,15.88-21.95,17.7-.87,21.9,14.9,26.63,27.22,8.97,23.35,13.28,47.89,13,73.08Z"/>
        <path class="cls-1" d="M665.67,254.15c-32.45-20.21-73.21-39.34-105.84-67.81-29.05-25.35-20.19-86.53,9-98.6,28.1-11.62,46.07,10.83,65.37,25.02,22.3,16.4,45.3,22.88,73.38,18.17,39.32-6.6,49.51,7.37,37.17,51.17-10.16,36.06-31.3,63.13-79.08,72.05Z"/>
        <path class="cls-1" d="M1283.38,751.15c.94-44.16,8.05-89.61-26.87-126.15-15.51-16.23-43.06-17.81-52.32-40.76-11.78-29.19,9.23-68.52,43.32-74.04,37.62-6.1,40.8,28.94,47.88,52.91,18.17,61.48,12,128.83,43.89,187.18,11.44,20.92,27.88,39.54,31.7,63.9,2.19,13.98-2.03,27.65-17.08,32.31-26.86,8.32-43.25-7.6-56.48-27.91-13.38-20.54-15.3-43.73-14.05-67.45Z"/>
      </g>
    </g>
  </g>
</svg>