<?xml version="1.0" encoding="UTF-8"?>
<svg id="Layer_2" data-name="Layer 2" xmlns="http://www.w3.org/2000/svg" viewBox="0 0 86.97 57.15">
  <defs>
    <style>
      .cls-1 {
        fill: none;
        stroke: #fff;
        stroke-linecap: round;
        stroke-linejoin: round;
      }
    </style>
  </defs>
  <g id="Layer_1-2" data-name="Layer 1">
    <path class="cls-1" d="M.5,43.15c1.39,4.94,3.19,10.66,8.33,12.68,6.93,2.38,13.86-3.59,15.98-9.94,2.79-7.85,3.58-16.36,3.78-24.86-.05-8.01.4-16.3-1.37-20.45-.75-.67-1.67,3.41-2.32,9.52-.49,4.59-.82,9.99-.91,14.59.17,11.64-.14,31.84,15.1,31.97,8.47-.49,12.4-10.45,13.29-17.84.32-2.92.52-5.63.13-8.11-.89,5.06.55,16.97,5.73,22.71,5.59,6.13,13.64,1.68,16.08-4.78,4.5-10.68,6.62-36.42,3.73-40.93-1.1.9-1.04,2.56-1.49,4.54-1.42,10.06-1.2,23.02.7,33.23,1.11,5.2,2.56,12.74,9.21,9.45"/>
  </g>
</svg>